<svg width="20" height="27" viewBox="0 0 20 27" fill="none" xmlns="http://www.w3.org/2000/svg">
<path fill-rule="evenodd" clip-rule="evenodd" d="M7.73054 7.82235C7.73054 6.69663 8.70834 6.26365 10.3278 6.26365C12.65 6.26365 15.5833 6.92754 17.9055 8.11101V1.32778C15.3695 0.375258 12.8639 0 10.3278 0C4.125 0 0 3.05967 0 8.16873C0 16.1354 11.6111 14.8653 11.6111 18.3003C11.6111 19.628 10.3889 20.061 8.67777 20.061C6.14166 20.061 2.90278 19.0796 0.336111 17.7518V24.6215C3.17777 25.7762 6.05 26.2668 8.67777 26.2668C15.0333 26.2668 19.4028 23.2939 19.4028 18.1271C19.3722 9.52536 7.73054 11.0552 7.73054 7.82235Z" fill="#73767F"/>
</svg>
